<svg xmlns="http://www.w3.org/2000/svg" width="47" height="59" viewBox="0 0 47 59">
    <path fill="#B19D69" fill-rule="nonzero" d="M40.897 43.747v2.012h2.565c-6.13 6.979-12.576 10.628-19.144 10.86V29.741h11.75a1.007 1.007 0 1 0 0-2.012h-11.75V12.786a6.257 6.257 0 0 0 5.238-6.679A6.26 6.26 0 0 0 23.31.356a6.255 6.255 0 0 0-1.007 12.43v14.951h-11.97a1.007 1.007 0 1 0 0 2.012h11.97v26.818c-9.28-.67-16.471-7.912-19.17-11.055h2.51v-2.01l-5.498-.004v5.953h2.015v-1.956c3.357 3.74 10.931 10.848 20.874 11.136h.62c7.385 0 14.488-3.842 21.184-11.398v2.011h2.014v-5.497h-5.956zM19.062 6.61a4.247 4.247 0 0 1 2.623-3.92 4.255 4.255 0 0 1 4.631.919 4.246 4.246 0 0 1-3.006 7.247 4.254 4.254 0 0 1-4.248-4.246z"/>
</svg>
