<svg xmlns="http://www.w3.org/2000/svg" xmlns:xlink="http://www.w3.org/1999/xlink" width="30" height="30" viewBox="0 0 30 30">
    <defs>
        <path id="a" d="M0 15V0h30v30H0z"/>
    </defs>
    <g fill="none" fill-rule="evenodd">
        <mask id="b" fill="#fff">
            <use xlink:href="#a"/>
        </mask>
        <path fill="#B19D69" d="M23.16 26.254c-.191.138-.386.272-.583.4a13.705 13.705 0 0 1-1.06.628c-.058.032-.117.061-.177.092-.614.314-1.25.585-1.902.805l-.07.023a13.95 13.95 0 0 1-1.038.301h-.003c-.354.088-.712.16-1.072.22l-.029.005c-.339.056-.68.095-1.023.126l-.182.013c-.339.026-.679.042-1.021.042-.346 0-.69-.017-1.034-.043l-.177-.013c-.346-.03-.69-.072-1.031-.127l-.046-.008a13.922 13.922 0 0 1-2.122-.53l-.064-.022a14.105 14.105 0 0 1-1.016-.389l-.007-.003a14.233 14.233 0 0 1-.93-.445 14.018 14.018 0 0 1-1.177-.692c-.248-.162-.492-.33-.73-.508-.025-.02-.048-.039-.073-.057l.053-.03 4.313-2.352a2.306 2.306 0 0 0 1.202-2.026v-1.965l-.126-.152c-.012-.013-1.19-1.448-1.636-3.39l-.05-.216-.186-.12a.903.903 0 0 1-.42-.76v-1.934a.89.89 0 0 1 .304-.667l.18-.162V9.26l-.005-.072c-.001-.013-.162-1.325.762-2.378.789-.899 2.14-1.356 4.016-1.356 1.869 0 3.216.453 4.007 1.346.923 1.042.772 2.378.77 2.39l-.004 3.109.18.162a.892.892 0 0 1 .304.667v1.934a.912.912 0 0 1-.645.86l-.27.083-.088.27c-.322 1-.78 1.923-1.361 2.744a6.718 6.718 0 0 1-.402.519l-.135.153v2.018c0 .88.489 1.67 1.275 2.063l4.618 2.31c.03.014.059.029.088.045l-.178.127M1.091 15C1.09 7.33 7.33 1.09 15 1.09c7.67 0 13.91 6.24 13.91 13.91 0 4.133-1.815 7.848-4.686 10.398-.16-.11-.322-.21-.487-.292l-4.618-2.31a1.208 1.208 0 0 1-.672-1.087v-1.613c.107-.132.22-.281.336-.445a11.128 11.128 0 0 0 1.427-2.795 1.98 1.98 0 0 0 1.137-1.794v-1.934c0-.472-.173-.931-.483-1.292V9.291c.028-.283.128-1.881-1.027-3.199C18.83 4.944 17.204 4.364 15 4.364c-2.204 0-3.831.58-4.837 1.728C9.008 7.409 9.108 9.007 9.136 9.29v2.546c-.31.36-.483.819-.483 1.292v1.934c0 .6.269 1.16.73 1.538.442 1.732 1.352 3.041 1.688 3.485v1.579c0 .445-.243.854-.634 1.068l-4.313 2.352a3.942 3.942 0 0 0-.41.26A13.875 13.875 0 0 1 1.09 15M30 15c0-8.27-6.73-15-15-15S0 6.73 0 15c0 4.368 1.879 8.306 4.869 11.05l-.014.012.486.41c.032.027.066.049.098.075.258.215.526.418.799.615a15.574 15.574 0 0 0 1.363.877c.334.19.676.37 1.025.535l.078.034c1.14.53 2.356.919 3.628 1.149l.1.018c.395.068.794.122 1.198.159.05.004.099.007.148.012.403.033.81.054 1.222.054.409 0 .812-.021 1.212-.053.05-.005.101-.008.152-.012.401-.036.797-.09 1.188-.157l.102-.018a14.84 14.84 0 0 0 3.577-1.121c.041-.02.083-.037.125-.056a15.354 15.354 0 0 0 2.09-1.195c.1-.068.199-.141.299-.213.24-.172.474-.35.703-.536.05-.041.105-.077.155-.119l.499-.416-.015-.013A14.961 14.961 0 0 0 30 15" mask="url(#b)"/>
    </g>
</svg>
