<svg xmlns="http://www.w3.org/2000/svg" width="48" height="40" viewBox="0 0 48 40">
    <path fill="#B19D69" fill-rule="nonzero" d="M42.63 13.833l-.031.013-2.477 1.026v-.002l-1.534.636C38.693 8.989 34.772 2.709 28.258 0l-9.72 23.46A8.295 8.295 0 0 0 2.767 27.9L0 31.646l4.342.41c4.31 7.013 14.412 9.62 23.739 5.757 8.36-3.462 13.487-11.042 13.08-18.345l3.246-1.345a4.645 4.645 0 0 0 2.483-6.056l-4.26 1.766zm-10.5-9.865l-7.068 17.06 1.226.509 6.865-16.572a15.232 15.232 0 0 1 2.44 3.46l-6 14.482 1.227.508 5.513-13.309c.588 1.586.9 3.236.928 4.914a14.408 14.408 0 0 1-1.107 5.79c-1.492 3.6-4.322 6.417-7.971 7.927a15.279 15.279 0 0 1-5.78 1.164 15.41 15.41 0 0 1-4.794-.732L28.952 1.785a15.562 15.562 0 0 1 3.178 2.183zm6.429 12.27l-.004.058.004-.058zm-.027.367zm-36.07 13.94l.463-.627.29.7-.753-.073zm34.36-1.228a20.052 20.052 0 0 1-3.939 4.155 22.125 22.125 0 0 1-5.309 3.113 21.888 21.888 0 0 1-7.146 1.656c-2.328.131-4.577-.126-6.685-.766-4.256-1.293-7.481-4.015-9.08-7.666l-.004-.006-.002-.007a7.377 7.377 0 0 1-.086-.201c-1.471-3.549.222-7.634 3.77-9.103 3.549-1.47 7.632.223 9.103 3.771l.382.922-1.248 3.015h-.002l-1.169-2.822a4.644 4.644 0 1 0-8.732 3.127 2.324 2.324 0 0 0 3.141 1.58 2.322 2.322 0 1 0-1.71-4.318 3.304 3.304 0 0 1 1.741-1.677 3.32 3.32 0 0 1 4.334 1.796l1.226 2.958.45 1.09h.003v.002c4.301 1.774 8.903 1.652 12.838.023 3.816-1.58 7.004-4.579 8.687-8.644.05-.117.096-.236.142-.353l2.33-.965c.033 1.5-.187 3.026-.656 4.54a17.197 17.197 0 0 1-2.378 4.78zm-28.817-.995l-.047-.134a.993.993 0 0 1 1.882-.625.995.995 0 1 1-1.839.76l.004-.001zm37.663-13.217a3.293 3.293 0 0 1-1.777 1.796l-.09.037-1.048.436-.006-.012-4.686 1.941c.204-.769.348-1.544.434-2.32l.91-.376v.002l1.225-.508 2.477-1.027.03-.012 2.78-1.152a3.237 3.237 0 0 1-.249 1.195z"/>
</svg>
