<svg xmlns="http://www.w3.org/2000/svg" xmlns:xlink="http://www.w3.org/1999/xlink" width="16" height="17" viewBox="0 0 16 17">
    <defs>
        <path id="a" d="M0 16.194h15.998V.233H0z"/>
    </defs>
    <g fill="none" fill-rule="evenodd">
        <path fill="#FFF" d="M7.999 9.1a.55.55 0 0 1-.552-.55.55.55 0 0 1 1.104 0 .55.55 0 0 1-.552.55m3.034-.824h-1.97a1.099 1.099 0 0 0-.788-.784V4.708a.275.275 0 0 0-.276-.274.275.275 0 0 0-.276.274v2.784a1.098 1.098 0 0 0-.827 1.059 1.102 1.102 0 0 0 2.167.274h1.97a.275.275 0 1 0 0-.549"/>
        <g transform="translate(0 .042)">
            <mask id="b" fill="#fff">
                <use xlink:href="#a"/>
            </mask>
            <path fill="#FFF" d="M7.999 15.37c-3.803 0-6.897-3.077-6.897-6.861S4.196 1.647 8 1.647c3.803 0 6.897 3.078 6.897 6.862 0 3.784-3.094 6.862-6.897 6.862zM.866 3.44a1.677 1.677 0 0 1 .18-2.166 1.698 1.698 0 0 1 2.176-.179L.866 3.44zm14.087-2.166c.592.589.651 1.51.178 2.166l-2.356-2.345a1.697 1.697 0 0 1 2.178.179zm-1.13 1.64l1.13 1.124a.276.276 0 0 0 .39 0 2.223 2.223 0 0 0 0-3.153 2.251 2.251 0 0 0-3.168 0 .273.273 0 0 0 0 .389l1.258 1.251-.469.467A7.438 7.438 0 0 0 8 1.098a7.438 7.438 0 0 0-4.965 1.893l-.469-.467 1.259-1.251a.273.273 0 0 0 0-.389 2.251 2.251 0 0 0-3.169 0 2.223 2.223 0 0 0 0 3.153.276.276 0 0 0 .39 0l1.13-1.124.463.46A7.364 7.364 0 0 0 .55 8.509c0 2.716 1.478 5.095 3.674 6.386l-.835.83a.273.273 0 0 0 .195.47c.07 0 .141-.028.195-.081l.952-.947a7.433 7.433 0 0 0 3.267.753c1.171 0 2.28-.272 3.267-.753l.952.947a.277.277 0 0 0 .39 0 .273.273 0 0 0 0-.388l-.835-.831c2.196-1.29 3.674-3.67 3.674-6.386a7.364 7.364 0 0 0-2.087-5.136l.463-.46z" mask="url(#b)"/>
        </g>
        <path fill="#FFF" d="M11.128 13.394l-.132-.227a.276.276 0 0 0-.376-.1.273.273 0 0 0-.101.375l.132.227a5.77 5.77 0 0 1-2.376.632v-.26A.275.275 0 0 0 8 13.765a.275.275 0 0 0-.276.274v.26a5.763 5.763 0 0 1-2.375-.63l.132-.228a.273.273 0 0 0-.101-.375.276.276 0 0 0-.377.1l-.132.227a5.814 5.814 0 0 1-1.738-1.73l.228-.13a.274.274 0 0 0 .1-.376.276.276 0 0 0-.376-.1l-.229.131a5.699 5.699 0 0 1-.635-2.364h.262a.275.275 0 1 0 0-.549H2.22c.04-.848.263-1.65.634-2.363l.23.131a.276.276 0 0 0 .376-.1.274.274 0 0 0-.101-.375l-.228-.132a5.817 5.817 0 0 1 1.739-1.73L5 3.934a.277.277 0 0 0 .377.1.274.274 0 0 0 .101-.375l-.132-.227A5.772 5.772 0 0 1 7.723 2.8v.26c0 .152.123.275.276.275a.275.275 0 0 0 .276-.275v-.26c.853.04 1.657.261 2.375.63l-.132.228a.274.274 0 0 0 .239.412c.095 0 .188-.05.239-.137l.132-.227a5.814 5.814 0 0 1 1.738 1.73l-.228.131a.274.274 0 0 0 .139.512.275.275 0 0 0 .137-.036l.229-.132c.372.715.594 1.515.634 2.364h-.261a.275.275 0 0 0-.276.275c0 .151.124.274.276.274h.261a5.697 5.697 0 0 1-.634 2.364l-.229-.132a.276.276 0 0 0-.377.1.274.274 0 0 0 .101.376l.228.13a5.804 5.804 0 0 1-1.738 1.731m2.356-8.012a6.374 6.374 0 0 0-2.3-2.288c-.005-.003-.008-.008-.012-.01l-.015-.006a6.33 6.33 0 0 0-3.158-.84 6.325 6.325 0 0 0-3.157.84c-.005.003-.01.002-.015.005-.005.003-.007.008-.012.01a6.372 6.372 0 0 0-2.3 2.29c-.003.004-.008.006-.01.011l-.006.015a6.249 6.249 0 0 0-.845 3.142c0 1.143.31 2.215.845 3.141.003.005.003.01.005.015.004.007.01.012.014.018a6.377 6.377 0 0 0 2.297 2.283l.012.01.022.01c.929.53 2.004.836 3.15.836a6.331 6.331 0 0 0 3.15-.837l.023-.009.012-.01a6.375 6.375 0 0 0 2.296-2.283c.004-.006.01-.011.014-.018.003-.004.003-.01.005-.015a6.248 6.248 0 0 0 .845-3.141 6.248 6.248 0 0 0-.845-3.142c-.002-.005-.002-.01-.005-.015-.003-.005-.008-.007-.01-.012"/>
    </g>
</svg>
