<svg xmlns="http://www.w3.org/2000/svg" width="63" height="43" viewBox="0 0 63 43">
    <g fill="#B19D69" fill-rule="nonzero">
        <path d="M8.92 26.526a15.137 15.137 0 0 1-1.81 2.007c-.002.003-.002.006-.004.006a.966.966 0 0 0-.22.312c-.003.005-.006.008-.006.01a1 1 0 0 0-.08.363c0 .005-.003.01-.003.013a.97.97 0 0 0 .015.212c.006.032.024.058.034.087a1.07 1.07 0 0 0 .175.346c.02.024.027.053.045.074.021.024.047.04.071.06a.93.93 0 0 0 .304.189l.044.013a.96.96 0 0 0 .312.055h.005c.06 0 .123-.005.183-.015a14.369 14.369 0 0 0 5.283-2.118c2.346.627 4.763.94 7.145.94 7.888 0 15.401-3.268 18.609-8.654 1.79-2.913 2.118-6.217.927-9.301-1.668-4.318-5.993-7.761-11.865-9.448-10.16-2.913-21.918.47-26.209 7.561C.208 12.052-.159 15.11.812 18.075c1.142 3.482 4.003 6.45 8.109 8.45H8.92zM3.597 10.274C7.446 3.918 18.183.931 27.53 3.62c5.183 1.49 9.126 4.569 10.545 8.238.974 2.517.71 5.118-.772 7.527-3.807 6.396-14.54 9.41-23.926 6.708-.016-.005-.034-.005-.05-.007-.037-.008-.07-.016-.11-.019l-.084-.008c-.04-.002-.076 0-.115.003l-.076.008a1.82 1.82 0 0 0-.115.026l-.073.024a.861.861 0 0 0-.103.044.803.803 0 0 0-.08.045c-.016.01-.035.016-.05.026-.503.354-1.04.654-1.592.927.107-.16.214-.318.314-.48a.4.4 0 0 1 .04-.058c.012-.019.018-.042.028-.063.01-.021.026-.042.037-.066.005-.01.005-.018.01-.029.013-.034.021-.068.032-.102.007-.032.018-.06.023-.092.005-.034.008-.068.01-.1.003-.031.006-.063.006-.097a1.37 1.37 0 0 0-.01-.097c-.006-.032-.008-.066-.014-.097l-.026-.095c-.01-.031-.018-.06-.031-.089-.013-.029-.03-.058-.045-.087-.016-.026-.031-.055-.047-.08-.018-.027-.04-.05-.06-.074a.94.94 0 0 0-.068-.076c-.021-.021-.045-.04-.068-.058-.03-.024-.058-.047-.09-.068-.007-.006-.015-.014-.023-.016-.02-.013-.042-.019-.06-.03-.024-.012-.042-.025-.066-.036-4.157-1.76-7.029-4.506-8.089-7.734-.796-2.389-.49-4.872.867-7.163z"/>
        <path d="M50.56 38.756c-.032-.018-.06-.039-.095-.055-.029-.015-.057-.026-.089-.039-.031-.013-.06-.021-.091-.032a.672.672 0 0 0-.1-.02c-.031-.006-.06-.011-.091-.014-.035-.002-.069-.002-.103-.002-.031 0-.06.002-.091.005-.037.005-.074.013-.11.018-.019.006-.037.006-.053.01l-.308.09c-.689.2-1.338.386-2.035.486-9.736 1.758-19.763-2.166-22.347-8.748a1.006 1.006 0 1 0-1.872.737c2.46 6.273 10.692 10.443 19.572 10.443 1.642 0 3.31-.144 4.966-.44.752-.108 1.456-.308 2.14-.502 1.479.99 3.254 1.724 5.309 2.163.068.013.136.02.204.02h.008c.1 0 .201-.02.296-.05.02-.007.042-.012.062-.02.092-.037.181-.082.26-.145.01-.007.015-.018.026-.026.042-.037.086-.073.126-.12.023-.027.039-.058.057-.087.01-.016.021-.029.032-.045a.944.944 0 0 0 .112-.283c.003-.008.008-.013.008-.021.005-.016.003-.032.005-.047a.755.755 0 0 0 .013-.108c.003-.032.003-.063.003-.095a1.102 1.102 0 0 0-.092-.377c-.013-.03-.029-.058-.044-.087-.016-.029-.037-.058-.055-.084-.019-.024-.037-.047-.058-.07a.557.557 0 0 0-.078-.08c-.013-.01-.021-.023-.034-.034-.658-.548-1.273-1.23-1.838-2.023 4.508-2.205 7.55-5.609 8.412-9.472.759-3.402-.246-6.874-2.841-9.78-3.775-4.172-10.22-6.66-17.234-6.66a1.007 1.007 0 0 0 0 2.015c6.458 0 12.343 2.241 15.744 5.99 2.173 2.437 2.995 5.198 2.372 7.989-.785 3.524-3.82 6.645-8.325 8.558-.021.01-.04.023-.06.034-.021.01-.042.018-.066.031-.01.006-.016.014-.024.019a.535.535 0 0 0-.086.065l-.07.06c-.024.024-.045.05-.069.077-.02.024-.042.047-.06.073-.018.027-.034.056-.05.084-.015.03-.031.058-.044.087a.95.95 0 0 0-.034.092c-.01.031-.021.06-.026.092-.008.031-.01.065-.013.097-.006.031-.008.063-.01.094-.004.032.002.066.004.097l.01.103c.006.029.014.058.022.086.01.037.018.071.034.108a.33.33 0 0 0 .008.026c.005.01.013.019.018.032a.768.768 0 0 0 .044.094c.118.194.241.373.362.56a10.658 10.658 0 0 1-1.587-.935c-.015-.018-.031-.024-.047-.034z"/>
    </g>
</svg>
