<svg xmlns="http://www.w3.org/2000/svg" width="38" height="48" viewBox="0 0 38 48">
    <g fill="#B19D69" fill-rule="nonzero">
        <path d="M37.669 13.468L24.616.488a1.057 1.057 0 0 0-.748-.318H7.5C3.382.17.012 3.52.012 7.616v32.818c0 4.095 3.37 7.447 7.488 7.447h23.002c4.118 0 7.488-3.352 7.488-7.447V14.212c0-.265-.109-.53-.321-.744zm-7.17 32.234H7.499c-2.943 0-5.35-2.393-5.35-5.32L2.15 7.618c0-2.927 2.407-5.32 5.35-5.32h15.245v9.893A3.152 3.152 0 0 0 25.9 15.33h9.95v25.107c0 2.873-2.407 5.266-5.35 5.266zM25.9 13.15a1.013 1.013 0 0 1-1.017-1.011v-8.35l9.414 9.36H25.9z"/>
        <path d="M7.66 25.063h10.646A1.07 1.07 0 0 0 19.375 24a1.07 1.07 0 0 0-1.07-1.063H7.662A1.07 1.07 0 0 0 6.59 24a1.067 1.067 0 0 0 1.07 1.063zM30.5 28.627H7.66a1.07 1.07 0 0 0-1.069 1.064 1.07 1.07 0 0 0 1.07 1.063h22.893a1.07 1.07 0 0 0 1.07-1.063c0-.585-.534-1.064-1.124-1.064zM30.5 33.947H7.66a1.07 1.07 0 0 0-1.069 1.063 1.07 1.07 0 0 0 1.07 1.064h22.893a1.07 1.07 0 0 0 1.07-1.064c0-.584-.534-1.063-1.124-1.063z"/>
    </g>
</svg>
