<svg xmlns="http://www.w3.org/2000/svg" width="49" height="26" viewBox="0 0 49 26">
    <path fill="#B19D69" fill-rule="nonzero" d="M24.504.002C14.284.002 5.288 4.888.198 12.34c-.256.36-.256.92 0 1.302C5.288 21.072 14.286 26 24.504 26c10.201 0 19.217-4.926 24.307-12.358.237-.36.256-.92 0-1.302C43.72 4.888 34.703.002 24.504.002zm0 2.824c5.545 0 10.023 4.546 10.023 10.174 0 5.628-4.478 10.174-10.023 10.174-5.563 0-10.022-4.546-10.022-10.174 0-5.628 4.459-10.174 10.022-10.174zm-7.656.501A12.45 12.45 0 0 0 12.25 13c0 3.906 1.795 7.39 4.598 9.672C10.93 21.03 5.898 17.566 2.545 13c3.354-4.566 8.385-8.03 14.303-9.673zm15.31 0C38.077 4.97 43.108 8.434 46.462 13c-3.374 4.566-8.385 8.03-14.304 9.672 2.782-2.283 4.599-5.766 4.599-9.672 0-3.906-1.817-7.39-4.599-9.673zm-7.654 4.586c-2.762 0-5.01 2.283-5.01 5.087s2.248 5.087 5.01 5.087c2.743 0 5.012-2.283 5.012-5.087s-2.269-5.087-5.012-5.087zm0 2.263c1.54 0 2.782 1.241 2.782 2.824 0 1.563-1.242 2.824-2.782 2.824-1.56 0-2.781-1.26-2.781-2.824 0-1.583 1.222-2.824 2.781-2.824z"/>
</svg>
