<svg xmlns="http://www.w3.org/2000/svg" width="83" height="61" viewBox="0 0 83 61">
    <path fill="#B19D69" fill-rule="nonzero" d="M5.929 0C2.663 0 0 2.624 0 5.841v37.383c0 3.217 2.663 5.84 5.929 5.84h48.837c1.14 6.613 6.975 11.683 14.005 11.683C76.618 60.747 83 54.459 83 46.728c0-6.087-3.97-11.28-9.486-13.214V5.84C73.514 2.624 70.851 0 67.586 0H5.929zm0 2.336h61.657c1.991 0 3.557 1.543 3.557 3.505v16.391l-15.896-11.5a1.208 1.208 0 0 0-.89-.218c-.198.022-.393.1-.555.219L28.494 30.008l-7.559-6.389c-.407-.346-1-.374-1.445-.073L2.37 35.12V5.84c0-1.962 1.566-3.504 3.558-3.504zM27.27 8.177c-3.26 0-5.928 2.629-5.928 5.842 0 3.212 2.668 5.84 5.928 5.84 3.261 0 5.929-2.628 5.929-5.84 0-3.213-2.668-5.842-5.929-5.842zm0 2.337c1.978 0 3.558 1.556 3.558 3.505 0 1.948-1.58 3.504-3.558 3.504-1.977 0-3.557-1.556-3.557-3.504 0-1.95 1.58-3.505 3.557-3.505zm27.309 2.628L71.143 25.08v7.85c-.778-.129-1.556-.22-2.372-.22-7.846 0-14.228 6.288-14.228 14.019H5.929c-1.992 0-3.558-1.543-3.558-3.505v-5.22l17.713-12.01 7.596 6.424c.43.375 1.07.388 1.519.037l25.38-19.313zM68.77 35.046c6.564 0 11.858 5.216 11.858 11.682 0 6.467-5.294 11.682-11.858 11.682-6.563 0-11.857-5.215-11.857-11.682 0-6.466 5.294-11.682 11.857-11.682zm-.148 4.637a1.175 1.175 0 0 0-1.037 1.204v4.673h-4.743a.906.906 0 0 0-.222 0 1.18 1.18 0 0 0-1.075 1.278c.06.643.644 1.118 1.297 1.059h4.743v4.672c-.005.315.12.617.343.836a1.186 1.186 0 0 0 1.685 0c.223-.22.348-.52.343-.836v-4.672H74.7c.32.004.625-.119.848-.338.227-.22.356-.516.356-.83 0-.315-.13-.612-.356-.831a1.184 1.184 0 0 0-.848-.338h-4.743v-4.673a1.156 1.156 0 0 0-.384-.908 1.196 1.196 0 0 0-.95-.296z"/>
</svg>
