<svg xmlns="http://www.w3.org/2000/svg" width="15" height="15" viewBox="0 0 15 15">
    <g fill="#FFF" fill-rule="nonzero">
        <path d="M3.377 13.375h11.285a.255.255 0 0 0 .254-.254.255.255 0 0 0-.254-.253H3.377a.255.255 0 0 0-.253.253c0 .139.115.254.253.254z"/>
        <path d="M1.865 11.901c.05 0 .1.003.15.008.081.007-.048-.009.031.004a1.546 1.546 0 0 1 .213.053c.023.007.046.016.068.025a.6.6 0 0 0 .006.002l.043.02c.086.04.167.091.243.148-.04-.03.02.016.023.02a1.631 1.631 0 0 1 .166.166c.002.003.05.063.02.022l.04.058c.028.04.052.08.075.122l.032.063c.002.004.033.075.013.027a1.539 1.539 0 0 1 .086.303c.015.08-.004-.05.005.031.003.025.004.05.005.075.003.05.003.1 0 .152 0 .025-.003.05-.005.074a1.127 1.127 0 0 1-.008.055 1.43 1.43 0 0 1-.095.305c-.01.022-.022.043-.033.064a1.427 1.427 0 0 1-.087.141c-.002.003-.05.065-.017.025l-.045.054a1.625 1.625 0 0 1-.099.101c-.017.016-.034.032-.053.047-.002.002-.063.05-.022.02a1.635 1.635 0 0 1-.265.157c-.07.034.045-.016-.027.012a1.39 1.39 0 0 1-.286.079l-.05.005c-.1.01-.201.006-.3-.005.053.006-.027-.005-.031-.006l-.072-.015a1.395 1.395 0 0 1-.162-.05c-.015-.005-.03-.01-.045-.017.049.02-.023-.011-.026-.013a1.317 1.317 0 0 1-.205-.12c-.013-.008-.025-.017-.038-.027.04.03-.02-.016-.023-.02a1.506 1.506 0 0 1-.166-.165l-.03-.037c.032.04-.015-.02-.017-.024a1.296 1.296 0 0 1-.12-.205l-.02-.043c.022.047-.009-.025-.01-.029a1.53 1.53 0 0 1-.075-.313 1.464 1.464 0 0 1 0-.252l.005-.049c-.006.054.005-.026.006-.03.014-.08.036-.158.064-.234l.017-.045a1.317 1.317 0 0 1 .16-.27c-.03.042.017-.019.02-.022.05-.06.107-.115.166-.166l.036-.03c-.04.032.021-.015.025-.017a1.296 1.296 0 0 1 .205-.12l.043-.02c-.048.022.025-.009.028-.01a1.53 1.53 0 0 1 .313-.075.71.71 0 0 1 .125-.009.256.256 0 0 0 .253-.253.255.255 0 0 0-.253-.253 1.76 1.76 0 0 0-1.205.489A1.742 1.742 0 0 0 .14 13.07c-.019.45.158.888.456 1.22.298.334.728.52 1.17.554.45.034.892-.136 1.235-.423.343-.288.537-.711.584-1.15.05-.453-.111-.896-.388-1.249-.274-.348-.696-.56-1.132-.615a1.683 1.683 0 0 0-.2-.014.255.255 0 0 0-.252.253c0 .14.115.253.253.254zM11.938 7.687h2.724a.255.255 0 0 0 .253-.254.255.255 0 0 0-.253-.253h-2.724a.255.255 0 0 0-.253.253c0 .139.115.254.253.254zM.391 7.687h8.454a.255.255 0 0 0 .253-.254.255.255 0 0 0-.253-.253H.39a.255.255 0 0 0-.253.253c0 .139.115.254.253.254z"/>
        <path d="M10.396 6.213c.051 0 .101.003.15.008.082.007-.048-.009.032.004a1.546 1.546 0 0 1 .213.053c.023.007.045.016.068.025a.6.6 0 0 0 .049.022c.086.04.166.091.243.148-.041-.03.02.016.022.02a1.631 1.631 0 0 1 .167.166c.002.003.05.063.02.022l.04.058c.027.04.051.08.074.122.012.02.022.042.033.063a1.539 1.539 0 0 1 .1.33c.013.08-.005-.05.003.031l.006.075c.003.05.002.101 0 .152 0 .025-.004.05-.006.074a1.127 1.127 0 0 1-.008.055 1.43 1.43 0 0 1-.094.305c-.01.022-.022.043-.033.064a1.427 1.427 0 0 1-.087.141c-.003.003-.05.065-.017.025l-.046.054a1.625 1.625 0 0 1-.098.101l-.053.047c-.003.002-.064.05-.022.02a1.635 1.635 0 0 1-.265.157c-.071.034.045-.016-.028.012a1.39 1.39 0 0 1-.286.079l-.05.005c-.1.01-.2.006-.3-.005.053.006-.026-.005-.03-.006l-.072-.015a1.395 1.395 0 0 1-.162-.05c-.015-.005-.03-.01-.045-.017.048.02-.023-.011-.027-.013a1.317 1.317 0 0 1-.243-.147c.041.03-.02-.016-.022-.02a1.506 1.506 0 0 1-.167-.165l-.03-.037c.033.04-.014-.02-.017-.024a1.296 1.296 0 0 1-.119-.205l-.02-.043c.021.047-.009-.025-.01-.029a1.53 1.53 0 0 1-.076-.313 1.464 1.464 0 0 1 .005-.3 1.451 1.451 0 0 1 .07-.264l.018-.046a1.317 1.317 0 0 1 .132-.231l.028-.038c-.03.04.016-.02.02-.023.05-.06.106-.115.166-.166l.036-.03c-.04.032.02-.015.025-.017a1.296 1.296 0 0 1 .204-.12l.044-.02a1.53 1.53 0 0 1 .341-.085.71.71 0 0 1 .124-.009.256.256 0 0 0 .254-.253.255.255 0 0 0-.254-.253 1.76 1.76 0 0 0-1.204.489 1.742 1.742 0 0 0-.521 1.187c-.02.45.158.888.456 1.22.298.334.728.52 1.169.554.451.034.893-.136 1.235-.423.344-.288.537-.71.585-1.15.05-.453-.111-.896-.389-1.249-.274-.348-.695-.56-1.13-.615a1.683 1.683 0 0 0-.2-.014.255.255 0 0 0-.254.253c0 .14.115.253.253.254zM6.508 1.999h8.153a.255.255 0 0 0 .254-.253.255.255 0 0 0-.254-.254H6.508a.255.255 0 0 0-.253.254c0 .138.116.253.253.253zM.391 1.999h3.025a.255.255 0 0 0 .254-.253.255.255 0 0 0-.254-.254H.391a.255.255 0 0 0-.253.254c0 .138.115.253.253.253z"/>
        <path d="M4.967.525c.05 0 .1.003.15.008.081.007-.048-.009.031.004a1.545 1.545 0 0 1 .213.053l.068.025a.6.6 0 0 0 .006.002l.043.02c.086.04.166.091.243.148-.041-.03.02.017.023.02A1.631 1.631 0 0 1 5.91.97c.002.003.05.063.02.022l.04.058c.027.04.051.08.075.122l.032.063c.002.004.033.076.013.027a1.539 1.539 0 0 1 .086.303c.015.08-.004-.05.004.031l.006.075c.003.05.002.101 0 .152 0 .025-.003.05-.006.074a1.127 1.127 0 0 1-.008.055 1.43 1.43 0 0 1-.094.305c-.01.022-.022.043-.033.064a1.427 1.427 0 0 1-.087.141c-.002.003-.05.065-.017.025-.014.019-.03.036-.046.054a1.625 1.625 0 0 1-.173.168 1.476 1.476 0 0 1-.265.157c-.07.034.045-.016-.027.012a1.39 1.39 0 0 1-.286.079l-.05.005c-.1.01-.201.006-.3-.005.053.006-.027-.005-.031-.006l-.072-.015a1.395 1.395 0 0 1-.162-.05c-.015-.005-.03-.01-.045-.017.049.02-.023-.011-.027-.013a1.317 1.317 0 0 1-.204-.119l-.039-.027c.042.03-.02-.017-.022-.02a1.506 1.506 0 0 1-.166-.166l-.03-.037c.032.04-.015-.02-.017-.024a1.296 1.296 0 0 1-.12-.205l-.02-.043c.022.047-.009-.025-.01-.028a1.53 1.53 0 0 1-.075-.314 1.464 1.464 0 0 1 0-.251c.001-.017.002-.034.005-.05a1.451 1.451 0 0 1 .07-.264l.017-.045a1.317 1.317 0 0 1 .132-.231l.028-.038c-.03.04.017-.02.02-.023.05-.06.107-.115.166-.166l.036-.03c-.04.032.021-.015.025-.017a1.296 1.296 0 0 1 .204-.12l.044-.02a1.53 1.53 0 0 1 .341-.085c.04-.007.083-.008.125-.009A.256.256 0 0 0 5.22.272a.255.255 0 0 0-.253-.253 1.76 1.76 0 0 0-1.205.489 1.742 1.742 0 0 0-.521 1.187c-.02.45.158.888.456 1.22.298.334.728.52 1.17.554.45.034.892-.136 1.235-.423.343-.288.536-.71.584-1.15.05-.453-.111-.896-.388-1.249C6.023.3 5.602.087 5.166.032a1.683 1.683 0 0 0-.2-.014.255.255 0 0 0-.253.253c0 .14.116.253.254.254z"/>
    </g>
</svg>
