<svg width="28" height="21" viewBox="0 0 28 21" xmlns="http://www.w3.org/2000/svg"><title>BFC875F0-CF75-4D2F-9E89-1F0793CE3E2A</title><g fill="#B09C6C" fill-rule="evenodd"><path d="M.366 3.204c0 .853.702 1.544 1.567 1.544h24.134c.865 0 1.567-.691 1.567-1.544V1.763c0-.853-.702-1.544-1.567-1.544H1.933C1.068.219.366.91.366 1.763v1.44zM9.769 11.156c0 .853.702 1.544 1.567 1.544h14.731c.865 0 1.567-.691 1.567-1.544v-1.44c0-.854-.702-1.545-1.567-1.545H11.336c-.865 0-1.567.691-1.567 1.544v1.441zM19.172 19.237c0 .853.702 1.544 1.567 1.544h5.328c.865 0 1.567-.691 1.567-1.544v-1.44c0-.854-.702-1.545-1.567-1.545H20.74c-.865 0-1.567.691-1.567 1.544v1.441z"/></g></svg>