<svg xmlns="http://www.w3.org/2000/svg" width="48" height="41" viewBox="0 0 48 41">
    <path fill="#B19D69" fill-rule="nonzero" d="M45.326.632H1.888C.864.632 0 1.5 0 2.522v35.956c0 1.026.867 1.891 1.888 1.891h43.435c1.024 0 1.887-.868 1.887-1.891l.003-35.955c0-1.026-.866-1.891-1.887-1.891zM1.888 2.522h43.435v26.571l-9.126-11.984c-.157-.237-.394-.314-.707-.394-.237 0-.55.08-.707.314l-7.396 7.648-9.052-9.853c-.157-.237-.473-.314-.787-.314a.823.823 0 0 0-.707.394L1.891 36.9 1.887 2.523zm1.26 35.956l14.638-21.526 19.752 21.526H3.148zm42.179 0h-5.272L28.642 26.02l6.689-6.94 9.992 13.09.003 6.308zM38.245 12.93a4.234 4.234 0 0 0 4.248-4.256 4.234 4.234 0 0 0-4.248-4.257 4.236 4.236 0 0 0-4.251 4.257 4.236 4.236 0 0 0 4.25 4.256zm0-6.622c1.337 0 2.36 1.026 2.36 2.366s-1.023 2.365-2.36 2.365-2.361-1.025-2.361-2.365c0-1.34 1.02-2.366 2.36-2.366z"/>
</svg>
