<svg xmlns="http://www.w3.org/2000/svg" width="17" height="23" viewBox="0 0 17 23">
    <g fill="#B09C6C" fill-rule="nonzero">
        <path d="M8.5 22.74a8.388 8.388 0 0 1-5.915-2.438 8.3 8.3 0 0 1-2.45-5.885 8.3 8.3 0 0 1 2.45-5.884A8.388 8.388 0 0 1 8.5 6.095c2.22 0 4.347.877 5.915 2.438a8.3 8.3 0 0 1 2.45 5.884 8.311 8.311 0 0 1-2.452 5.883A8.397 8.397 0 0 1 8.5 22.74zm0-15.183a6.91 6.91 0 0 0-4.876 2.01 6.838 6.838 0 0 0-2.02 4.85c0 1.82.727 3.565 2.02 4.85a6.91 6.91 0 0 0 4.876 2.01 6.91 6.91 0 0 0 4.876-2.01 6.838 6.838 0 0 0 2.02-4.85 6.85 6.85 0 0 0-2.022-4.849A6.922 6.922 0 0 0 8.5 7.558z"/>
        <path d="M10.08 14.417c0 2.096-3.159 2.096-3.159 0 0-2.095 3.158-2.095 3.158 0"/>
        <path d="M7.763 14.417h1.47v4.376h-1.47zM13.36 8.065h-1.475V4.1c0-1.31-1.53-2.382-3.406-2.382-1.877 0-3.404 1.057-3.404 2.382v3.964h-1.47V4.1C3.606 1.987 5.79.258 8.484.258c2.69 0 4.877 1.73 4.877 3.843v3.964z"/>
    </g>
</svg>
