<svg xmlns="http://www.w3.org/2000/svg" width="47" height="61" viewBox="0 0 47 61">
    <g fill="#FFF" fill-rule="nonzero">
        <path d="M6.386 0C3.014 0 .268 2.73.268 6.086v47.832c0 3.355 2.747 6.086 6.118 6.086h33.502c3.376 0 6.126-2.73 6.126-6.086l-.004-38.836L30.778 0H6.386zm33.498 56.809H6.386a2.906 2.906 0 0 1-2.908-2.895l.004-47.828C3.482 4.494 4.787 3.2 6.39 3.2l23.45-.024v8.856c0 2.265 1.85 4.105 4.126 4.105l8.736-.023.094 37.805a2.911 2.911 0 0 1-2.912 2.89z"/>
        <path d="M24.046 29.117a1.296 1.296 0 0 0-1.812 0l-7.144 7.102c-.37.367-.48.91-.275 1.386a1.27 1.27 0 0 0 1.179.782h4.664v9.21c0 .938.767 1.688 1.702 1.688h1.556c.94 0 1.702-.754 1.702-1.688v-9.21h4.664c.52 0 .987-.309 1.187-.782.189-.476.09-1.02-.275-1.386l-7.148-7.102z"/>
    </g>
</svg>
