<svg xmlns="http://www.w3.org/2000/svg" width="32" height="32" viewBox="0 0 32 32">
    <g fill="#B19D69" fill-rule="nonzero">
        <path d="M31.24 25.066l-4.889-4.891a2.593 2.593 0 0 0-1.85-.737 2.816 2.816 0 0 0-1.973.803L20.15 22.62l-.384-.211h.002a24.268 24.268 0 0 1-5.884-4.258 24.33 24.33 0 0 1-4.274-5.908l-.195-.36 2.38-2.377a2.719 2.719 0 0 0 .064-3.833L6.96.786A2.584 2.584 0 0 0 5.111.047a2.802 2.802 0 0 0-1.98.806l-1.2 1.212a.488.488 0 0 0-.075.093l-.097.162A8.213 8.213 0 0 0 .615 4.337a8.49 8.49 0 0 0-.514 2.068c-.652 5.41 1.809 10.346 8.49 17.027 7.908 7.909 14.573 8.52 16.425 8.52.204.003.406-.005.609-.022a8.557 8.557 0 0 0 2.075-.525 8.032 8.032 0 0 0 2.034-1.157l.276-.215.04-.037 1.126-1.106a2.71 2.71 0 0 0 .064-3.824zm-.77 3.11l-1.102 1.083-.253.199c-.54.42-1.14.76-1.779 1.008a7.446 7.446 0 0 1-1.822.461c-.016 0-.189.02-.498.02-1.755 0-8.07-.59-15.712-8.224-6.435-6.44-8.813-11.13-8.202-16.2a7.453 7.453 0 0 1 .452-1.815 7.216 7.216 0 0 1 1.008-1.793l.034-.047.094-.13L3.85 1.57V1.57a1.783 1.783 0 0 1 1.261-.514c.423-.01.831.15 1.136.444l4.889 4.885c.64.684.611 1.755-.064 2.404l-2.666 2.654a.504.504 0 0 0-.084.605l.39.672a25.19 25.19 0 0 0 4.451 6.156 25.13 25.13 0 0 0 6.11 4.411l.717.397v.001a.502.502 0 0 0 .597-.101l2.647-2.646a1.795 1.795 0 0 1 1.265-.508c.426-.004.837.163 1.14.464l4.885 4.888c.307.31.476.73.467 1.164a1.772 1.772 0 0 1-.525 1.231h.004zM18.019 3.393a10.607 10.607 0 0 1 10.593 10.591.504.504 0 1 0 1.008 0 11.615 11.615 0 0 0-11.601-11.6.504.504 0 0 0 0 1.009zM17.01 8.1a6.899 6.899 0 0 1 6.894 6.892.504.504 0 1 0 1.009 0 7.912 7.912 0 0 0-7.903-7.9.504.504 0 0 0 0 1.008z"/>
    </g>
</svg>
