<svg xmlns="http://www.w3.org/2000/svg" width="19" height="33" viewBox="0 0 19 33">
    <g fill="#B09C6C" fill-rule="nonzero">
        <path d="M17.274 3.915H6.169V1.678C6.17.751 5.423 0 4.503 0c-.92 0-1.666.751-1.666 1.678v2.237h-1.11c-.92 0-1.666.751-1.666 1.678v25.729C.061 32.248.807 33 1.726 33h15.548c.919 0 1.665-.752 1.665-1.678V5.593c0-.927-.746-1.678-1.665-1.678zM3.947 1.678c0-.31.249-.56.556-.56.307 0 .555.25.555.56v2.237h-1.11V1.678zm13.88 29.644a.558.558 0 0 1-.554.559H1.726a.557.557 0 0 1-.554-.56V5.594c0-.31.248-.56.554-.56h15.547a.56.56 0 0 1 .554.56v25.729z"/>
        <path d="M14.497 7.272H4.503c-.92 0-1.666.75-1.666 1.677v5.593c0 .927.746 1.678 1.666 1.678h9.994c.92 0 1.666-.751 1.666-1.678V8.949c0-.927-.746-1.677-1.666-1.677zm.555 7.271v-.001a.563.563 0 0 1-.162.396.55.55 0 0 1-.393.163H4.503a.557.557 0 0 1-.555-.56V8.95c0-.308.248-.56.555-.56h9.994a.56.56 0 0 1 .555.56v5.594zM6.724 22.373c0 .745-1.11.745-1.11 0 0-.746 1.11-.746 1.11 0M10.055 22.373c0 .745-1.11.745-1.11 0 0-.746 1.11-.746 1.11 0M13.386 22.373c0 .745-1.11.745-1.11 0 0-.746 1.11-.746 1.11 0M6.724 25.728c0 .747-1.11.747-1.11 0 0-.745 1.11-.745 1.11 0M10.055 25.728c0 .747-1.11.747-1.11 0 0-.745 1.11-.745 1.11 0M13.386 25.728c0 .747-1.11.747-1.11 0 0-.745 1.11-.745 1.11 0M6.724 28.526c0 .745-1.11.745-1.11 0 0-.747 1.11-.747 1.11 0M10.055 28.526c0 .745-1.11.745-1.11 0 0-.747 1.11-.747 1.11 0M13.386 28.526c0 .745-1.11.745-1.11 0 0-.747 1.11-.747 1.11 0M5.614 19.018c0 1.491-2.222 1.491-2.222 0 0-1.493 2.222-1.493 2.222 0M15.608 19.018c0 1.491-2.222 1.491-2.222 0 0-1.493 2.222-1.493 2.222 0M11.377 18.458H8.045a.558.558 0 0 0 0 1.118h3.332c.306 0 .554-.25.554-.558 0-.31-.248-.56-.554-.56z"/>
    </g>
</svg>
