<svg xmlns="http://www.w3.org/2000/svg" width="35" height="35" viewBox="0 0 35 35">
    <path fill="#B19D69" fill-rule="nonzero" d="M.437.788a1.502 1.502 0 0 0-.436 1.1l.393 14.849c.01.398.173.771.452 1.049L17.611 34.55c.583.583 1.56.605 2.152.013L34.22 20.107c.592-.593.57-1.567-.013-2.152L17.442 1.19a1.54 1.54 0 0 0-1.05-.454L1.544.344A1.51 1.51 0 0 0 .44.784L.437.788zm1.13 1.125l14.77.39L33.075 19.04 18.693 33.423 1.956 16.687 1.565 1.913h.001zm4.677 4.68a3.532 3.532 0 0 0 0 4.98 3.532 3.532 0 0 0 4.98 0 3.532 3.532 0 0 0 0-4.98 3.532 3.532 0 0 0-4.98 0zM7.35 7.7c.77-.77 1.996-.77 2.765 0 .77.77.77 1.995 0 2.764-.77.77-1.996.77-2.765 0a1.942 1.942 0 0 1 0-2.764z"/>
</svg>
