<svg xmlns="http://www.w3.org/2000/svg" width="56" height="50" viewBox="0 0 56 50">
    <path fill="#B19D69" fill-rule="nonzero" d="M55.333 9.52a2.666 2.666 0 0 0-2.696-2.695l-12.552.003L34.04.783c-.986-.986-2.562-1.053-3.547-.131a2.442 2.442 0 0 0-.855 1.84c0 .724.262 1.381.724 1.905l2.561 2.561-1.642 1.643c-.527-.46-1.117-.724-1.84-.724-.725 0-1.446.262-1.972.788l-.262.262-1.512 1.646-5.257 5.257c-1.117 1.116-1.117 2.826 0 3.942l2.498 2.498c.526.526 1.247.788 1.97.788.725 0 1.446-.262 1.972-.788l7.03-7.098c.527-.526.789-1.247.789-1.971 0-.657-.262-1.314-.724-1.84l1.643-1.643 4.928 4.928-1.643 1.643c-.526-.46-1.116-.724-1.84-.724s-1.445.262-1.971.788l-6.965 7.1c-1.116 1.117-1.116 2.826 0 3.943l2.498 2.498c.526.526 1.247.788 1.971.788s1.445-.262 1.972-.788l7.03-7.03c.527-.527.788-1.248.788-1.972 0-.657-.262-1.315-.724-1.84l1.643-1.644 4.731 4.731v.134l-13.8 13.8c-.066.066-.13.066-.197 0L16.495 18.457c-.986-.986-2.562-1.052-3.548-.13a2.442 2.442 0 0 0-.854 1.84c0 .724.261 1.38.724 1.904l3.218 3.22-3.811 3.81a5.13 5.13 0 0 0-1.117 1.71l-.724 1.905c-.329.855-.13 1.905.526 2.562l.526.526-2.957 2.957a21.635 21.635 0 0 0-2.3 2.695L0 50l8.673-6.176a15.161 15.161 0 0 0 2.696-2.3l2.957-2.957.526.526a2.39 2.39 0 0 0 1.71.724c.261 0 .59-.067.854-.13l1.905-.725a4.799 4.799 0 0 0 1.71-1.116l3.811-3.812 6.176 6.176a4.424 4.424 0 0 0 3.155 1.314c1.183 0 2.3-.46 3.155-1.314l14.916-14.916c1.773-1.774 1.773-4.6 0-6.31l-6.77-6.769h7.162a2.666 2.666 0 0 0 2.695-2.695h.002zM10.45 40.603a20.392 20.392 0 0 1-2.561 2.169l-2.17 1.576 1.577-2.233a20.392 20.392 0 0 1 2.169-2.562l2.561-2.562.986.986-2.562 2.626zm9.593-3.678c-.329.328-.788.59-1.247.788l-1.905.723c-.395.131-.855.067-1.183-.261l-3.943-3.943a1.139 1.139 0 0 1-.262-1.183l.724-1.905c.198-.46.46-.855.788-1.248l3.812-3.811 6.967 6.966-3.751 3.874zM32.99 14.254l-7.097 7.03c-.59.59-1.512.59-2.103 0l-2.497-2.497c-.262-.262-.46-.657-.46-1.053 0-.395.131-.788.46-1.052l.067-.067 1.971 1.971c.13.131.329.198.46.198.13 0 .328-.067.459-.198a.636.636 0 0 0 0-.918l-1.971-1.972.657-.657 1.971 1.971c.131.131.329.198.46.198.13 0 .328-.067.459-.198a.636.636 0 0 0 0-.919l-1.971-1.97.657-.658 1.971 1.971c.131.131.329.198.46.198.13 0 .328-.067.46-.198a.636.636 0 0 0 0-.919l-1.972-1.97.657-.658 1.971 1.971c.131.131.329.198.46.198.13 0 .328-.067.46-.198a.636.636 0 0 0 0-.919l-1.972-1.971.657-.657 1.971 1.971c.131.131.329.198.46.198.13 0 .328-.067.46-.198a.636.636 0 0 0 0-.919l-1.972-1.971c.262-.13.526-.262.788-.262.395 0 .788.131 1.052.46l2.498 2.497c.262.262.46.657.46 1.053.002.457-.129.85-.39 1.114zm.131-3.812l-.855-.855 1.643-1.643.855.855-1.643 1.643zm7.49 11.5l-7.03 7.03c-.59.59-1.512.59-2.103 0l-2.497-2.497a1.469 1.469 0 0 1 0-2.103l.066-.066 1.972 1.97c.13.132.328.199.46.199.13 0 .328-.067.459-.198a.636.636 0 0 0 0-.919l-1.972-1.971.658-.658 1.97 1.972c.132.13.33.198.46.198.131 0 .329-.067.46-.198a.636.636 0 0 0 0-.92l-1.972-1.97.658-.658 1.971 1.972c.13.13.329.197.46.197.13 0 .328-.066.459-.197a.636.636 0 0 0 0-.92l-1.971-1.97.657-.658 1.971 1.972c.131.13.329.197.46.197.13 0 .328-.066.459-.197a.636.636 0 0 0 0-.92l-1.971-1.97.657-.658 1.971 1.972c.131.13.329.197.46.197.13 0 .328-.066.46-.197a.636.636 0 0 0 0-.92l-1.972-1.97c.262-.131.526-.262.788-.262.395 0 .788.13 1.052.46l2.498 2.497c.262.262.46.657.46 1.052.002.454-.193.783-.458 1.112zm.131-3.812l-.855-.855 1.643-1.643.855.855-1.643 1.643zm10.581 6.31L36.407 39.288c-.59.59-1.381.919-2.233.919a3.127 3.127 0 0 1-2.233-.92l-18.205-18.2a1.299 1.299 0 0 1-.395-.92c0-.328.131-.657.395-.919.198-.197.527-.328.788-.328.329 0 .658.13.92.395l17.61 17.612c.591.59 1.446.59 2.04 0l13.799-13.8c.261-.262.395-.59.395-.986 0-.395-.131-.724-.395-.985L31.215 3.479a1.299 1.299 0 0 1-.396-.92c0-.328.131-.656.396-.918.46-.46 1.247-.395 1.773.13l18.335 18.2c1.184 1.183 1.184 3.219 0 4.469zM41.4 8.141h11.238c.788 0 1.381.59 1.381 1.38 0 .789-.59 1.382-1.38 1.382l-8.476-.003-2.763-2.76z"/>
</svg>
