<svg xmlns="http://www.w3.org/2000/svg" width="36" height="19" viewBox="0 0 36 19">
    <path fill="#B19D69" fill-rule="nonzero" d="M18.022.002c-7.36 0-13.84 3.553-17.506 8.972-.184.262-.184.67 0 .948 3.666 5.403 10.147 8.987 17.506 8.987 7.347 0 13.84-3.582 17.506-8.987a.908.908 0 0 0 0-.948C31.862 3.554 25.368.002 18.022.002zm0 2.053c3.993 0 7.219 3.307 7.219 7.4s-3.226 7.399-7.219 7.399c-4.007 0-7.218-3.306-7.218-7.4 0-4.092 3.211-7.399 7.218-7.399zm-5.514.365a9.089 9.089 0 0 0-3.312 7.034 9.084 9.084 0 0 0 3.312 7.035c-4.263-1.195-7.886-3.714-10.302-7.035 2.416-3.32 6.04-5.84 10.302-7.034zm11.027 0c4.262 1.195 7.886 3.714 10.301 7.034-2.43 3.321-6.039 5.84-10.301 7.035a9.134 9.134 0 0 0 3.311-7.035 9.134 9.134 0 0 0-3.311-7.034zm-5.513 3.335c-1.99 0-3.61 1.66-3.61 3.7 0 2.039 1.62 3.7 3.61 3.7 1.976 0 3.61-1.661 3.61-3.7 0-2.04-1.634-3.7-3.61-3.7zm0 1.646c1.11 0 2.004.902 2.004 2.054 0 1.136-.895 2.053-2.004 2.053-1.123 0-2.003-.917-2.003-2.053 0-1.152.88-2.054 2.003-2.054z"/>
</svg>
