
<svg xmlns="http://www.w3.org/2000/svg" width="35" height="29" viewBox="0 0 35 29">
    <path fill="#B19D69" fill-rule="nonzero" d="M30.931 10.113l-.022.01-1.797.744v-.001l-1.114.461c.076-4.73-2.77-9.287-7.497-11.253L13.448 17.1a6.02 6.02 0 0 0-11.446 3.222L-.006 23.04l3.152.297c3.127 5.09 10.458 6.982 17.227 4.179 6.067-2.513 9.788-8.014 9.493-13.313l2.355-.977a3.371 3.371 0 0 0 1.802-4.394l-3.092 1.281zm-7.62-7.159l-5.129 12.381.89.369 4.982-12.026c.707.755 1.3 1.596 1.77 2.51l-4.353 10.51.89.369 4-9.659a10.71 10.71 0 0 1 .674 3.567 10.456 10.456 0 0 1-.803 4.202c-1.083 2.612-3.137 4.656-5.785 5.752a11.183 11.183 0 0 1-7.673.313l8.23-19.872c.837.433 1.607.963 2.307 1.584zm4.666 8.905c-.002.013-.002.028-.003.042l.003-.042zm-.02.265zM1.782 22.241l.336-.455.21.508-.546-.053zm24.936-.89a14.552 14.552 0 0 1-2.859 3.015 16.056 16.056 0 0 1-3.853 2.258 15.884 15.884 0 0 1-5.186 1.202c-1.69.096-3.321-.091-4.851-.555-3.089-.94-5.43-2.914-6.59-5.564l-.002-.005-.002-.004a5.061 5.061 0 0 1 2.674-6.752 5.062 5.062 0 0 1 6.605 2.736l.278.67-.906 2.188h-.002l-.847-2.049a3.37 3.37 0 0 0-6.26 2.504 1.686 1.686 0 1 0 .962-2.221c.244-.532.68-.975 1.263-1.217a2.41 2.41 0 0 1 3.145 1.303l.89 2.147.327.791h.001v.002a12.178 12.178 0 0 0 9.317.016c2.769-1.147 5.083-3.323 6.304-6.273a9.21 9.21 0 0 0 .103-.257l1.691-.7a10.354 10.354 0 0 1-.476 3.295 12.48 12.48 0 0 1-1.726 3.47zm-20.913-.723c-.012-.033-.024-.064-.034-.097a.721.721 0 0 1 1.366-.454.722.722 0 1 1-1.335.552l.003-.001zm27.332-9.592a2.39 2.39 0 0 1-1.29 1.303l-.065.027-.76.317-.005-.01-3.4 1.41c.148-.558.252-1.121.315-1.684l.66-.273v.002l.89-.37 1.797-.744.022-.01 2.017-.835a2.35 2.35 0 0 1-.18.867z"/>
</svg>
