<svg xmlns="http://www.w3.org/2000/svg" width="23" height="29" viewBox="0 0 23 29">
    <g fill="#B19D69" fill-rule="nonzero">
        <path d="M22.378 8.285L14.773.69a.615.615 0 0 0-.436-.187H4.799c-2.4 0-4.364 1.96-4.364 4.357v19.2c0 2.396 1.964 4.357 4.364 4.357h13.403c2.4 0 4.363-1.96 4.363-4.356V8.72a.618.618 0 0 0-.187-.435zm-4.177 18.858H4.798a3.124 3.124 0 0 1-3.118-3.112l.001-19.17A3.124 3.124 0 0 1 4.8 1.75h8.883v5.789c0 .995.81 1.835 1.839 1.835h5.797v14.69c0 1.68-1.402 3.08-3.117 3.08zM15.52 8.098a.591.591 0 0 1-.593-.592V2.621l5.486 5.477H15.52z"/>
        <path d="M4.892 15.068h6.203c.343 0 .623-.28.623-.622a.625.625 0 0 0-.623-.622H4.892a.623.623 0 0 0 0 1.244zM18.201 17.154H4.892a.625.625 0 0 0-.623.622c0 .342.281.622.623.622h13.34c.343 0 .624-.28.624-.622 0-.342-.311-.622-.655-.622zM18.201 20.266H4.892a.625.625 0 0 0-.623.622c0 .342.281.622.623.622h13.34c.343 0 .624-.28.624-.622 0-.342-.311-.622-.655-.622z"/>
    </g>
</svg>
