<svg xmlns="http://www.w3.org/2000/svg" viewBox="0 0 24.3 24.4" width="24" height="24">
  <style>
    path {
      fill: #b09c6c
    }
  </style>
  <path class="icon--agenda" d="M12.2 24.4C15.3 24.4 18.4 23.2 20.8 20.8 25.5 16.1 25.5 8.3 20.8 3.6 16-1.2 8.3-1.2 3.6 3.6 -1.2 8.3-1.2 16.1 3.6 20.8 6.1 23.4 8.5 24.4 12.2 24.4ZM4.7 4.7C6.9 2.4 9 1.6 12.2 1.6 14.9 1.6 17.6 2.6 19.7 4.7 23.8 8.8 23.8 15.6 19.7 19.7 17.4 21.9 15.3 22.8 12.2 22.8 9 22.8 6.9 21.9 4.7 19.7 0.5 15.6 0.5 8.8 4.7 4.7ZM8.8 18C9.1 18 9.2 18 9.4 17.8L13.5 13.3C13.6 13.2 13.7 13 13.7 12.8L13.7 6.8C13.7 6.4 13.4 6 12.9 6 12.5 6 12.1 6.4 12.1 6.8L12.1 12.5 8.2 16.7C7.9 17 7.9 17.5 8.2 17.8 8.4 18 8.6 18.1 8.8 18Z"/>
</svg>
