<svg xmlns="http://www.w3.org/2000/svg" xmlns:xlink="http://www.w3.org/1999/xlink" width="110" height="70" viewBox="0 0 110 70">
    <defs>
        <path id="a" d="M9.723 9.769V.128H.2v9.641h9.523z"/>
        <path id="c" d="M0 69.704h109.715V0H0z"/>
    </defs>
    <g fill="none" fill-rule="evenodd" opacity=".138">
        <path fill="#000" d="M38.306 18.091c-2.55.827-4.4 3.214-4.4 6.028 0 3.494 2.853 6.337 6.36 6.337 1.196 0 2.31-.337 3.266-.91a17.113 17.113 0 0 1-5.226-11.455zm1.96-.31a6.33 6.33 0 0 0-1.41.162 16.551 16.551 0 0 0 5.154 11.288 6.32 6.32 0 0 0 2.616-5.112c0-3.494-2.852-6.338-6.36-6.338zm15.067 16.61c-4.375-.048-8.352-1.731-11.373-4.457a6.882 6.882 0 0 1-6.852.308c-.055.41-.09.82-.09 1.223 0 5.163 4.215 9.363 9.397 9.363a9.42 9.42 0 0 0 8.918-6.437zm16.881-17.488C72.066 7.985 64.842.763 55.902.573v16.33h16.312zm1.846 9.69l1.417-.878a23.924 23.924 0 0 1-2.533-2.973l1.116 3.851zM72.6 30.4l-.41-.993 1.823-.976-1.9-6.563c-1.408 4.9-4.948 8.93-9.56 10.994l2.62.663.006-.006 3.633.927.232.059 1.133.289 2.424-4.394zM55.903 17.456v16.338c8.925-.191 16.163-7.454 16.312-16.338H55.902zm3.575 35.756c-1.348-10.077 3.989-17.554 5.302-19.215l-3.09-.781.003-.014a17.102 17.102 0 0 1-5.758 1.153c-1.063 3.483-3.977 6.066-7.47 6.805l-.23 2.185 1.258 1.095a4.223 4.223 0 0 1 2.943-1.202c2.318 0 4.206 1.88 4.206 4.19 0 .91-.3 1.796-.851 2.522l3.687 3.262zm-22.89-23.269c-1.941-1.222-3.237-3.373-3.237-5.824 0-3.111 2.08-5.745 4.928-6.6-.002-.107-.016-.21-.016-.319 0-1.224.13-2.446.387-3.634l.543.116a16.637 16.637 0 0 0-.373 3.518c0 .06.009.119.009.179a6.98 6.98 0 0 1 1.438-.152c3.813 0 6.917 3.092 6.917 6.892 0 2.242-1.085 4.231-2.755 5.49a16.656 16.656 0 0 0 10.918 4.228V.562C47.611.655 40.85 6.14 39.228 13.682l-.542-.115C40.376 5.706 47.464 0 55.543 0c9.507 0 17.24 7.707 17.24 17.18 0 1.238-.141 2.444-.395 3.61.135.281 1.115 2.209 3.727 4.78l.25.246-2.12 1.314.352 1.322.012.04h-.001l.058.217-1.77.948.32.776-2.76 5.004-1.55-.396-3.536-.894c-.91 1.106-7.01 8.992-5.24 19.727l-.218.119-.238.134-4.653-4.12.177-.207a3.62 3.62 0 0 0 .887-2.372 3.647 3.647 0 0 0-3.65-3.636 3.663 3.663 0 0 0-2.72 1.215l-.182.204-1.883-1.639.244-2.306a9.779 9.779 0 0 1-1.479.116c-5.49 0-9.953-4.45-9.953-9.917 0-.501.045-1.013.124-1.522zM6.085 69.102H.54v-8.996H0v9.534h6.085zM9.175 66.57l.125-.25 2.537-5.43 2.539 5.433.122.242 1.447 3.047h.605L12.057 60.1h-.451L7.15 69.612h.605zM55.548 69.7c2.129 0 3.862-1.72 3.862-3.836v-5.805h-.553v5.816c-.014 1.798-1.498 3.261-3.309 3.261-1.818 0-3.299-1.468-3.299-3.272v-5.805h-.553v5.805c0 2.116 1.729 3.836 3.852 3.836M72.22 69.148v-8.536h3.084c2.368 0 4.297 1.914 4.297 4.268s-1.929 4.268-4.297 4.268H72.22zm7.947-4.268c0-2.644-2.165-4.806-4.825-4.82h-3.676v9.64h3.663c2.667 0 4.838-2.162 4.838-4.82zM86.542 60.574c1.8 0 3.262 1.454 3.262 3.24 0 1.787-1.463 3.239-3.262 3.239-1.821 0-3.25-1.423-3.25-3.24 0-1.816 1.429-3.239 3.25-3.239m0 7.023c2.1 0 3.806-1.697 3.806-3.783s-1.706-3.783-3.806-3.783a3.792 3.792 0 0 0-3.794 3.783 3.793 3.793 0 0 0 3.794 3.783M33.452 66.617l.127-.254 2.575-5.507 2.575 5.51.123.247 1.466 3.088h.61l-4.554-9.642h-.455l-4.515 9.642h.61zM62.656 66.616l.127-.253 2.574-5.507 2.575 5.51.125.247 1.465 3.088h.608l-4.551-9.642h-.457l-4.513 9.642h.61z"/>
        <g transform="translate(99.992 59.931)">
            <mask id="b" fill="#fff">
                <use xlink:href="#a"/>
            </mask>
            <path fill="#000" d="M2.249 6.684l.126-.253L4.947.925l2.576 5.51.124.247 1.465 3.087h.61L5.169.128h-.453L.2 9.769h.61z" mask="url(#b)"/>
        </g>
        <path fill="#000" d="M93.507 60.599h2.758a2.388 2.388 0 0 1 2.363 2.377c0 1.29-1.06 2.351-2.36 2.362h-.007l-2.754-4.74zm-.012 4.74v-.004h-.54V69.7h.54V65.88h2.436l2.21 3.821h.639l-2.028-3.504h.004l-.192-.333c1.485-.153 2.629-1.395 2.629-2.887a2.925 2.925 0 0 0-2.925-2.917h-3.711l3.064 5.28h-2.126zM26.29 69.7h.54v-9.257l-.002-.057v-.327h-4.113v.54h3.574z"/>
        <mask id="d" fill="#fff">
            <use xlink:href="#c"/>
        </mask>
        <path fill="#000" d="M27.462 60.599h3.43v-.54h-3.43zM83.012 69.7h7.073v-.547h-7.073zM45.124 69.704h.54v-9.258l-.002-.056v-.327H41.55v.54h3.573zM46.457 60.602h3.432v-.539h-3.432z" mask="url(#d)"/>
    </g>
</svg>
